<svg width="109" height="100" viewBox="0 0 109 100" fill="none" xmlns="http://www.w3.org/2000/svg">
<path d="M57.6524 17.3643C50.0536 3.41405 29.9557 -1.33045 16.2494 6.67148C2.54309 14.6734 -3.35134 33.1557 1.90393 48.0974C7.24416 63.1593 27.3152 98.5093 46.6837 99.9388C73.8529 101.944 108.7 54.153 108.927 30.7481C109.069 17.7184 100.689 4.47626 88.1188 0.86477C75.5487 -2.74672 60.28 5.32602 57.9365 18.1433" fill="#E1E0DF"/>
<path d="M30.5536 32.2412C28.7276 34.2728 26.9116 36.325 25.0653 38.3666C24.7067 37.4774 23.3093 37.5009 22.7374 38.2362C22.1754 38.9919 22.3402 40.1024 22.831 40.9017C23.2519 41.5577 23.8863 42.0841 24.6447 42.246C25.403 42.4079 26.245 42.1742 26.715 41.5394C27.1746 40.9349 27.1507 39.9583 26.5873 39.4226C28.311 37.5422 30.1253 35.7443 32.0098 34.0387C32.2678 34.8249 33.4002 35.083 34.0919 34.5932C34.7634 34.1134 34.932 33.1188 34.6537 32.3426C34.3753 31.5663 33.7213 30.948 33.0053 30.5121C32.602 30.2529 32.1577 30.0644 31.6921 30.0383C31.2265 30.0122 30.7086 30.2397 30.5034 30.644C30.2266 31.1592 30.4553 31.7823 30.6744 32.3342" fill="#E1E3F5"/>
<path d="M25.1604 38.0414C24.6069 37.5261 23.7157 37.5558 23.1255 37.996C22.4843 38.4863 22.2857 39.4195 22.4628 40.1945C22.571 40.6738 22.8414 41.1246 23.1528 41.5047C23.4542 41.8643 23.8265 42.2147 24.2504 42.4131C24.6744 42.6115 25.1403 42.5868 25.5966 42.4907C26.0529 42.3946 26.5198 42.2174 26.8259 41.8652C27.4075 41.2012 27.2118 40.1819 26.7912 39.475C26.7109 39.3622 26.5078 39.4614 26.588 39.5742C26.9084 40.1273 27.1364 40.8521 26.8286 41.4585C26.6338 41.8323 26.2577 42.0413 25.8924 42.1689C25.4967 42.2861 25.091 42.3828 24.6764 42.3065C24.2618 42.2302 23.9294 41.9617 23.6174 41.6833C23.2854 41.3639 23.0143 41.0148 22.8348 40.5957C22.5255 39.9105 22.5412 39.0667 23.0009 38.4622C23.4402 37.8676 24.4034 37.6761 24.9872 38.202C25.0878 38.3049 25.261 38.1443 25.1604 38.0414Z" fill="#101010"/>
<path d="M25.2023 40.8589C27.0572 39.0411 28.9122 37.2234 30.7671 35.4056C31.297 34.8935 31.8269 34.3814 32.3266 33.8588C32.4285 33.7583 32.2676 33.5835 32.1657 33.6839C30.3411 35.5122 28.4862 37.33 26.6313 39.1477C26.1013 39.6598 25.5714 40.1719 25.0718 40.6946C24.9496 40.8049 25.1004 40.9593 25.2023 40.8589Z" fill="#101010"/>
<path d="M24.1671 39.4633C25.7696 37.5408 27.4527 35.6802 29.2163 33.8817C29.716 33.359 30.2052 32.8668 30.7149 32.3646C30.8168 32.2642 30.6559 32.0893 30.554 32.1897C28.76 33.9777 27.0164 35.8172 25.3633 37.7391C24.894 38.2723 24.445 38.7956 23.9856 39.3492C23.8837 39.4497 24.0752 39.5842 24.1671 39.4633Z" fill="#101010"/>
<path d="M31.7082 30.3346C31.3684 31.1847 31.5744 32.1736 32.2385 32.8123C32.5505 33.0907 32.9741 33.34 33.4094 33.3555C33.8144 33.3605 34.1804 33.1311 34.2541 32.7151C34.2854 32.5731 34.0526 32.5601 34.0213 32.7021C33.958 33.0877 33.4917 33.1633 33.1783 33.0883C32.8246 32.9822 32.4919 32.7646 32.2508 32.4769C31.7686 31.9014 31.6525 31.0966 31.9406 30.3985C31.9819 30.277 31.7698 30.2032 31.7082 30.3346Z" fill="#101010"/>
<path d="M31.8518 34.3941C32.314 34.9286 33.082 35.1618 33.7518 34.9362C34.4316 34.731 34.9422 34.0763 34.9876 33.3447C34.9886 33.1922 34.7761 33.1692 34.7548 33.3316C34.7101 33.9616 34.2607 34.5357 33.6519 34.7316C33.0634 34.9175 32.3863 34.716 31.9844 34.2534C31.9244 34.1306 31.7716 34.2813 31.8518 34.3941Z" fill="#101010"/>
<path d="M30.5514 32.2422C30.2907 31.8627 30.2231 31.3636 30.3677 30.9382C30.5123 30.5129 30.869 30.1614 31.3053 30.0244C31.3663 29.9946 31.3969 29.9543 31.3972 29.9035C31.3976 29.8527 31.317 29.7907 31.2764 29.8105C30.7791 29.9772 30.3614 30.3585 30.1759 30.8545C29.9903 31.3505 30.0675 31.921 30.3582 32.3618C30.3882 32.4232 30.4488 32.4443 30.5098 32.4145C30.5607 32.3643 30.6017 32.2936 30.5514 32.2422Z" fill="#101010"/>
<path d="M65.3799 32.6793C64.6791 34.2505 63.9782 35.7988 63.2773 37.3699C63.2095 37.5066 63.413 37.6204 63.4808 37.4838C64.1817 35.9127 64.8825 34.3643 65.5834 32.7932C65.6512 32.6566 65.4478 32.5427 65.3799 32.6793Z" fill="#101010"/>
<path d="M32.8979 39.0023C34.7102 40.5501 36.5328 42.0674 38.4163 43.555C38.9502 43.9785 39.484 44.402 40.0079 44.8051C40.1287 44.8981 40.2413 44.7164 40.1408 44.6135C38.2672 43.1464 36.4039 41.6489 34.5813 40.1315C34.0678 39.6981 33.5543 39.2646 33.0308 38.8107C32.9099 38.7177 32.777 38.9093 32.8979 39.0023Z" fill="#101010"/>
<path d="M50.5618 27.069C50.9567 29.421 51.379 31.7566 51.8672 34.1089C52.0044 34.777 52.1415 35.4451 52.2841 36.0912C52.317 36.2403 52.52 36.1745 52.5091 36.031C52.0154 33.7008 51.5491 31.3541 51.1268 29.0185C51.0116 28.3559 50.8964 27.6934 50.7867 27.0088C50.7538 26.8597 50.5289 26.9199 50.5618 27.069Z" fill="#101010"/>
<path d="M46.2655 57.9941C46.1198 62.7058 45.9741 68.15 42.3561 71.1528C41.9434 71.4945 41.5063 71.7875 41.2149 72.2513C40.9964 72.5687 40.8992 72.9593 40.8021 73.3255C39.0538 79.6729 37.3055 86.0203 35.5815 92.3677C38.6653 90.2194 42.8418 90.6344 46.4598 91.6109C50.0777 92.6118 53.6714 94.101 57.4351 93.9057C57.7265 93.8813 58.0664 93.8569 58.285 93.6372C58.5035 93.4175 58.552 93.0757 58.552 92.7583C58.8191 88.8034 59.062 84.8241 59.3291 80.8692C59.4262 79.5264 59.5233 78.1349 60.1304 76.9387C60.446 76.3039 60.9317 75.3762 61.1016 74.6927C61.3687 73.6429 60.9074 73.0082 60.5917 71.8852C59.6933 68.4429 59.8778 63.8011 60.0216 60.022C59.6574 59.607 58.4549 59.3124 58.0907 59.703C57.7265 60.1181 57.9693 61.5096 57.8964 62.0467C57.6536 63.6091 57.4594 65.2448 56.7795 66.6608C56.0753 68.1011 54.7641 69.3218 53.1858 69.4194C51.7289 69.4927 50.3448 68.565 49.5193 67.3443C48.6937 66.1237 48.378 64.6345 48.208 63.1697C47.9652 61.3387 47.9409 59.4589 48.0866 57.6279C47.6253 57.6768 46.6297 57.7012 46.1927 57.7744" fill="#101010"/>
<path d="M39.2712 81.7235C40.8981 80.4052 42.6706 79.2578 44.4917 78.2325C45.8758 77.4757 47.357 76.7921 48.9353 76.6212C50.1494 76.4991 51.3877 76.6945 52.5776 77.0118C53.6702 77.3292 54.7386 77.7686 55.637 78.4522C57.361 79.7705 58.2837 81.9433 58.5751 84.0916C58.8665 86.24 58.5751 88.4371 58.2595 90.5855C56.584 89.0963 54.8843 87.6071 53.2089 86.1179C52.5776 85.5564 51.9219 84.9949 51.1449 84.7019C50.1494 84.3357 49.0567 84.409 48.0369 84.7019C46.3372 85.1658 44.856 86.1423 43.2534 86.8747C40.8981 87.9489 38.2514 88.5592 36.2603 90.2437C36.843 88.2174 37.4743 86.1911 38.1299 84.1648C38.4456 83.2372 38.7613 82.2606 39.4897 81.5771" fill="#3643BA"/>
<path d="M44.4443 73.9114C44.5657 74.4729 44.9785 74.9368 45.4884 75.2053C46.0954 75.5471 46.7753 75.6203 47.4552 75.6936C47.6009 75.718 47.6009 75.4739 47.4552 75.4495C46.4111 75.3274 44.9542 75.0833 44.6871 73.8382C44.6385 73.6917 44.42 73.7405 44.4443 73.9114Z" fill="white"/>
<path d="M46.4844 57.9451C43.8377 57.0662 40.8268 58.238 38.8357 60.2155C36.8446 62.1929 35.7276 64.8784 34.8292 67.515C33.2023 72.3244 32.1825 77.3534 32.1582 82.4069C32.1582 83.3591 32.2068 84.3844 32.6924 85.19C33.7122 86.9478 36.1404 87.1187 38.1801 87.0943C45.1246 86.9722 52.0935 86.8257 58.8924 85.3853C59.6208 85.2389 60.4464 85.068 61.102 85.4342C61.7576 85.8004 61.9519 86.9478 61.2477 87.2652C60.7621 87.4605 60.2279 87.1431 59.718 87.0943C59.2081 87.0454 58.601 87.7046 59.0138 88.022C60.4464 88.9985 62.7289 87.9731 62.9717 86.2642C63.2145 86.7037 63.8459 86.0933 63.9187 85.5807C64.0644 84.4088 63.943 83.1882 63.3602 82.1872C62.7775 81.1863 61.6362 80.4295 60.495 80.5271C59.8394 80.576 59.2081 80.8689 58.5767 81.0642C56.7313 81.5769 54.7645 81.0886 52.8948 80.698C48.2084 79.6483 43.4492 79.1356 38.6657 79.16C39.3942 74.8877 40.6568 70.6887 42.4294 66.7338C41.9437 68.6868 41.4824 71.1037 40.9968 73.0567C44.7361 70.6887 47.0915 63.3403 46.4359 57.9695" fill="white"/>
<path d="M46.5088 57.8229C44.2992 57.1149 41.871 57.7741 40.0014 59.0924C37.986 60.5083 36.6262 62.7055 35.6792 64.9515C35.1693 66.1477 34.7322 67.3928 34.3437 68.6134C33.9067 69.9806 33.5424 71.3477 33.2025 72.7393C32.5712 75.4979 32.1584 78.3298 32.0612 81.1618C32.037 81.8453 32.0127 82.5289 32.0612 83.188C32.0855 83.8228 32.1826 84.4331 32.4497 85.019C32.8868 85.9467 33.7124 86.5326 34.6594 86.85C35.6307 87.1674 36.699 87.2406 37.7189 87.2406C39.1029 87.2406 40.487 87.1918 41.871 87.1674C44.7848 87.0941 47.6744 86.9721 50.5639 86.7279C51.9965 86.6059 53.4049 86.4594 54.8132 86.2397C56.2458 86.0444 57.6784 85.7758 59.0868 85.4829C59.6938 85.3608 60.3737 85.2387 60.9565 85.5317C61.345 85.727 61.5635 86.1664 61.5392 86.6059C61.5149 86.8012 61.4421 86.9965 61.2721 87.1185C61.0293 87.2894 60.6894 87.2406 60.4223 87.1674C60.1552 87.0941 59.8638 86.9721 59.5724 86.9965C59.3539 87.0209 59.1353 87.1185 58.9896 87.265C58.844 87.3871 58.7468 87.558 58.7225 87.7533C58.7225 87.973 58.844 88.0951 59.0139 88.2171C59.3781 88.4368 59.8152 88.5589 60.2523 88.5589C61.1264 88.5589 62.0249 88.1439 62.5591 87.4603C62.8261 87.143 62.9961 86.7523 63.069 86.3373C62.9961 86.3373 62.9233 86.3617 62.8504 86.3617C63.0204 86.6303 63.3118 86.6059 63.5546 86.435C63.846 86.1908 63.9917 85.8491 64.0402 85.4829C64.1374 84.5308 64.0645 83.5298 63.7003 82.6265C63.3603 81.8209 62.7533 81.1129 61.952 80.7223C61.5878 80.5514 61.175 80.4294 60.7622 80.405C60.2523 80.3805 59.7667 80.527 59.3053 80.6979C58.7954 80.8688 58.3098 81.0397 57.7756 81.1129C57.2414 81.1862 56.6829 81.1862 56.1487 81.1373C55.0317 81.0641 53.9633 80.7956 52.8707 80.5514C50.6853 80.0876 48.4757 79.7214 46.2418 79.4773C44.0078 79.2331 41.7496 79.0866 39.5157 79.0622C39.2486 79.0622 38.9572 79.0622 38.6901 79.0622C38.7387 79.1111 38.763 79.1599 38.8116 79.2087C39.37 75.8885 40.2685 72.6172 41.4583 69.4923C41.7982 68.589 42.1624 67.6857 42.5509 66.8069C42.4781 66.7825 42.4052 66.7336 42.3324 66.7092C41.8225 68.8087 41.4097 70.9327 40.8998 73.0322C40.8755 73.1299 40.9969 73.2275 41.0697 73.1787C42.7695 72.1045 43.935 70.2979 44.7606 68.5158C45.7561 66.3919 46.3389 64.097 46.5817 61.7778C46.7031 60.5083 46.7274 59.2388 46.5574 57.9938C46.5331 57.8473 46.2903 57.8473 46.3146 57.9938C46.5817 60.2398 46.3632 62.5346 45.829 64.7318C45.2948 66.8801 44.4692 69.0041 43.1823 70.7862C42.5752 71.6407 41.8468 72.4219 40.9483 72.9834C40.9969 73.0322 41.0697 73.081 41.1183 73.1299C41.6282 71.0303 42.041 68.9064 42.5509 66.8069C42.5752 66.6848 42.381 66.5872 42.3324 66.7092C40.9483 69.8097 39.8799 73.0566 39.1272 76.3524C38.9087 77.2801 38.7387 78.2322 38.5687 79.1599C38.5445 79.2331 38.593 79.3064 38.6901 79.3064C40.8027 79.3064 42.9152 79.404 45.0277 79.5993C47.1645 79.7946 49.277 80.112 51.3652 80.5026C52.385 80.6979 53.4049 80.942 54.4247 81.1373C55.4202 81.3326 56.4401 81.4791 57.4599 81.3815C57.9455 81.3326 58.4312 81.235 58.8925 81.0885C59.3539 80.942 59.8152 80.7467 60.3009 80.6735C61.1507 80.5514 62.0006 80.8932 62.6319 81.4791C63.2875 82.0895 63.676 82.9683 63.7974 83.8472C63.8703 84.311 63.8703 84.7749 63.846 85.2387C63.8217 85.6049 63.7489 85.9955 63.4089 86.2153C63.2875 86.2885 63.1661 86.3373 63.0932 86.1908C63.0447 86.1176 62.899 86.1176 62.8747 86.2153C62.7533 87.0941 62.0734 87.7777 61.2478 88.0951C60.8593 88.2415 60.4223 88.3148 59.9852 88.2415C59.7667 88.2171 59.5481 88.1439 59.3539 88.0462C59.2082 87.973 58.9411 87.8753 58.9896 87.6556C59.0382 87.4603 59.2567 87.2894 59.451 87.2162C59.7181 87.1185 60.0095 87.2406 60.2523 87.3138C60.7136 87.4359 61.2721 87.5336 61.6121 87.0941C61.8549 86.7768 61.8549 86.3373 61.7092 85.9711C61.5392 85.5317 61.1993 85.2631 60.7379 85.1411C60.1552 84.9946 59.5481 85.0923 58.9654 85.2143C58.2855 85.3608 57.5813 85.4829 56.9014 85.6049C55.5174 85.8491 54.109 86.0444 52.7007 86.2153C49.884 86.5326 47.0673 86.7035 44.2264 86.8012C42.818 86.85 41.4097 86.8744 40.0014 86.9232C38.8116 86.9477 37.6217 87.0209 36.4319 86.9232C35.4607 86.85 34.4408 86.6303 33.6396 86.0688C33.2268 85.7758 32.9111 85.3852 32.6926 84.9214C32.4255 84.3355 32.3283 83.7007 32.3041 83.066C32.2555 81.7233 32.3283 80.3317 32.4497 78.989C32.5712 77.6219 32.7654 76.2303 33.0082 74.8632C33.5181 72.1533 34.2466 69.4923 35.1693 66.9045C35.9949 64.5853 37.039 62.2661 38.7387 60.4839C40.2927 58.8482 42.5267 57.6764 44.8334 57.774C45.3919 57.7985 45.9261 57.8961 46.4603 58.067C46.606 58.0914 46.6788 57.8717 46.5088 57.8229Z" fill="#101010"/>
<path d="M47.8432 57.3836C48.7659 56.8466 49.7129 56.2851 50.2714 55.3818C50.8299 54.4785 50.7813 53.1114 49.9072 52.501C49.4458 52.1837 48.8388 52.1348 48.4017 51.7686C47.6976 51.2071 47.6976 50.133 47.7704 49.2297C47.9161 47.594 48.0618 45.9095 48.7659 44.4447C49.4944 42.9799 50.927 41.7349 52.5539 41.7349C53.9622 41.7349 55.2006 42.6626 56.2447 43.6147C57.4588 44.7377 58.6 45.9583 59.5956 47.2766C60.2755 48.1799 60.9068 49.1564 61.1496 50.2794C61.3682 51.4024 61.1011 52.6719 60.2512 53.3799C59.4985 54.0146 58.4058 54.1367 57.7502 54.8935C57.1189 55.6259 57.1431 56.7245 57.4345 57.6278C57.7259 58.5555 58.6 59.5564 58.9157 60.4597C58.8914 60.8259 58.3329 63.5113 57.7987 66.1968C57.4102 68.101 56.4633 70.1028 54.715 70.9085C52.991 71.7141 50.8542 70.9573 49.5672 69.5414C48.2803 68.1498 48.1832 66.6257 47.8432 64.7459C47.8432 62.5229 47.5172 59.4662 48.0618 57.1151" fill="white"/>
<path d="M59.8161 59.971C58.7477 59.3363 57.1937 59.8978 56.7323 61.0452C56.3195 60.7767 56.0524 60.264 56.0767 59.7757C55.8582 60.1419 55.6154 60.4837 55.3968 60.8499C54.7169 60.7034 54.1827 60.0931 54.1099 59.4096C52.9444 60.6546 51.2446 61.387 49.5449 61.387C50.6619 59.7513 51.876 58.0912 53.6 57.1391C56.5623 55.479 60.7145 56.5044 62.5842 59.3363C63.167 60.2152 63.5312 61.1917 63.8711 62.1926C64.551 64.0236 65.2066 65.8546 65.8865 67.6856C66.9064 70.4687 67.9505 73.3494 67.9262 76.3034C67.9019 79.2818 66.6393 82.4311 64.0168 83.847C63.1427 81.3813 60.3746 79.6236 60.4717 77.0114C60.5203 75.864 60.5045 74.7848 60.5773 73.6374C60.6502 72.7585 60.6659 72.3729 60.4474 71.5184C59.549 67.8565 59.8889 63.5842 59.8889 59.8246" fill="white"/>
<path d="M59.8851 59.849C58.7438 59.1899 57.117 59.7514 56.6313 60.9964C56.6799 60.972 56.7527 60.9476 56.8013 60.9232C56.4128 60.6546 56.1943 60.2152 56.2185 59.7514C56.2185 59.6293 56.0486 59.5805 56 59.6781C55.7815 60.0443 55.5387 60.3861 55.3201 60.7523C55.3687 60.7279 55.4173 60.7035 55.4658 60.7035C54.8345 60.557 54.3489 60.0199 54.2517 59.3852C54.2274 59.2875 54.1303 59.2143 54.0332 59.2875C52.8677 60.5082 51.2408 61.2406 49.5654 61.2406C49.5896 61.3138 49.6382 61.3626 49.6625 61.4359C50.4638 60.264 51.3136 59.0922 52.382 58.1401C53.329 57.3101 54.446 56.7241 55.7086 56.5288C57.9668 56.1626 60.395 56.9683 61.949 58.6772C62.9446 59.7758 63.4059 61.1917 63.9159 62.5589C64.4986 64.1701 65.1057 65.7814 65.6884 67.3927C66.7811 70.3711 67.9709 73.4715 67.8252 76.694C67.7281 79.1354 66.7568 81.7231 64.7657 83.2368C64.5229 83.4321 64.2558 83.5785 63.9887 83.725C64.0373 83.7494 64.1101 83.7738 64.1587 83.7983C63.673 82.4311 62.6775 81.357 61.8519 80.1851C61.4634 79.6236 61.0749 79.0377 60.8564 78.3786C60.5893 77.6462 60.6135 76.9722 60.6135 76.9722C60.6135 76.9722 60.6135 76.1386 60.8564 74.4713C61.0992 72.804 60.8554 72.804 60.6135 71.5185C60.3717 70.2329 60.2493 69.7363 60.1522 68.833C60.0551 67.9053 60.0065 66.9532 59.9822 66.0255C59.9337 64.1701 59.9579 62.3854 59.9822 60.5301C59.9822 60.3103 59.9822 60.1975 59.9822 59.9778C59.9822 59.8313 59.7394 59.8313 59.7394 59.9778C59.7394 61.8332 59.7151 63.511 59.7394 65.3664C59.7637 67.1974 59.8608 69.0528 60.225 70.8593C60.4591 72.1928 60.618 74.3837 60.225 75.727C60.2493 76.1473 60.2736 77.0847 60.4679 77.8903C60.6135 78.5494 60.9292 79.1842 61.2934 79.7457C62.0704 80.9663 63.1146 82.0161 63.7216 83.3344C63.7944 83.5053 63.8673 83.6518 63.9159 83.8227C63.9401 83.8959 64.013 83.9447 64.0858 83.8959C66.344 82.6508 67.6067 80.1607 67.9466 77.6706C68.3837 74.4725 67.3396 71.3232 66.2712 68.3692C65.6641 66.7335 65.0571 65.0734 64.4743 63.4377C64.183 62.6565 63.9159 61.8509 63.6002 61.0697C63.3088 60.3617 62.9931 59.6781 62.5561 59.0434C61.172 57.1147 58.7681 56.0894 56.4371 56.1871C55.223 56.2359 54.0575 56.6265 53.0376 57.3101C51.8478 58.1157 50.9009 59.2631 50.051 60.4349C49.8325 60.7279 49.6382 61.0208 49.4439 61.3138C49.3954 61.387 49.4682 61.5091 49.5411 61.5091C51.2894 61.5091 52.9891 60.7523 54.2032 59.4828C54.1303 59.4584 54.0575 59.434 53.9846 59.3852C54.0818 60.142 54.6402 60.7767 55.3687 60.9476C55.4173 60.972 55.4658 60.9476 55.5144 60.8988C55.7329 60.5326 55.9757 60.1908 56.1943 59.8246C56.1214 59.8002 56.0486 59.7758 55.9757 59.7514C55.9757 60.3129 56.2428 60.8255 56.6799 61.1185C56.7527 61.1673 56.8256 61.1185 56.8499 61.0453C57.2869 59.9467 58.7438 59.4584 59.7394 60.0443C59.8851 60.142 60.0065 59.9223 59.8851 59.849Z" fill="#101010"/>
<path d="M50.7089 51.4024C51.4131 51.9639 51.146 53.1602 50.4418 53.7217C49.7376 54.2588 48.7906 54.332 47.8922 54.4052C45.804 54.5273 43.3515 54.4541 42.1617 52.7451C41.4818 51.7442 41.4576 50.4015 41.8704 49.2785C42.2831 48.1555 43.0844 47.2034 43.9586 46.3733C44.5413 45.8362 45.1969 45.2259 45.1241 44.4447C45.0513 43.7855 44.4442 43.3217 43.9586 42.8578C42.8416 41.8569 42.0403 40.3921 42.0889 38.9029C42.1375 37.4137 43.133 35.8757 44.5899 35.5339C46.0468 35.1921 47.7708 36.2663 47.8437 37.7799C47.8922 38.5611 47.528 39.318 47.4309 40.0992C47.358 40.8804 47.7222 41.8325 48.4993 41.9057C49.2034 41.9546 49.6891 41.271 50.1747 40.7583C51.4373 39.4156 53.5013 38.9273 55.2253 39.5621C57.095 40.2456 58.479 42.0766 60.4459 42.3208C57.6777 44.2738 54.1812 45.1527 50.8546 44.7132C50.806 46.3733 50.7817 48.0578 50.7332 49.7179C50.2718 49.132 49.1791 49.3517 48.9606 50.0597C48.7421 50.7677 49.5191 51.5489 50.2233 51.3292C50.3932 51.2804 50.5389 51.1827 50.7089 51.2315C50.8789 51.2804 50.9031 51.5733 50.7332 51.5733" fill="#3643BA"/>
<path d="M54.0854 50.4018C54.9596 50.9145 56.0765 51.0365 57.0478 50.6948C57.1935 50.6459 57.1207 50.4018 56.975 50.4506C56.0523 50.768 55.0324 50.6703 54.2069 50.1821C54.0854 50.1088 53.964 50.3041 54.0854 50.4018Z" fill="#101010"/>
<path d="M55.4911 45.4941C56.5352 46.2265 57.8221 46.5439 59.0605 46.4218C59.0362 46.3485 59.0119 46.2753 58.9634 46.2021C58.502 46.8124 57.8707 47.2274 57.1422 47.4471C56.9965 47.496 57.0451 47.7157 57.2151 47.6913C57.9921 47.4715 58.672 47.0321 59.1576 46.3974C59.2062 46.3241 59.1819 46.1777 59.0605 46.1777C57.8464 46.2997 56.608 45.9823 55.6125 45.2744C55.4668 45.2011 55.3454 45.3964 55.4911 45.4941Z" fill="#101010"/>
<path d="M51.7793 53.0871C52.3621 53.0871 52.8477 53.4045 53.3091 53.6975C53.7947 54.0148 54.2804 54.259 54.8388 54.4299C55.9558 54.7472 57.1456 54.7472 58.2626 54.5031C59.3067 54.2834 60.3751 53.8439 60.9821 52.9163C61.5649 52.0618 61.6863 50.9388 61.4677 49.9379C61.2006 48.6684 60.3994 47.5942 59.5009 46.6665C59.4038 46.5444 59.2095 46.7153 59.331 46.8374C60.0837 47.6186 60.7879 48.5219 61.1035 49.5961C61.4192 50.5482 61.3949 51.6712 60.9093 52.5745C60.3751 53.551 59.3795 54.0148 58.3354 54.2346C57.267 54.4787 56.1015 54.5031 55.0331 54.2346C54.426 54.0637 53.8918 53.7707 53.3576 53.4533C52.872 53.136 52.3621 52.843 51.7793 52.843C51.6094 52.843 51.6094 53.0871 51.7793 53.0871Z" fill="#101010"/>
<path d="M58.6957 45.7143C58.3801 45.4458 58.0644 45.2016 57.7245 44.9331C57.6759 44.8843 57.6031 44.8843 57.5545 44.9331C57.5059 44.9819 57.5059 45.0552 57.5545 45.104C57.8702 45.3725 58.1858 45.6167 58.5258 45.8852C58.5743 45.934 58.6472 45.934 58.6957 45.8852C58.7443 45.8364 58.7443 45.7387 58.6957 45.7143Z" fill="#101010"/>
<path d="M57.4575 56.1629C57.3361 55.5525 57.5789 54.9178 58.0403 54.5272C58.1617 54.4295 57.9917 54.2587 57.8703 54.3563C57.3361 54.7957 57.069 55.5525 57.2147 56.2361C57.2633 56.3582 57.4818 56.3093 57.4575 56.1629Z" fill="#101010"/>
<path d="M50.8092 49.5468C50.6878 49.3515 50.3478 49.327 50.1293 49.3026C49.8622 49.2782 49.5708 49.2782 49.328 49.4247C48.8909 49.6932 48.7938 50.2792 48.9395 50.7186C49.0123 50.9871 49.1823 51.1824 49.4251 51.3045C49.7165 51.4266 50.0322 51.451 50.3478 51.451C50.4207 51.451 50.7121 51.3777 50.7364 51.4754C50.7364 51.4998 50.7364 51.573 50.7364 51.5975C50.7364 51.6951 50.7364 51.7684 50.7364 51.866C50.7606 52.3543 50.8092 52.8181 50.7606 53.3064C50.6878 53.9899 50.445 54.6247 50.0807 55.2106C49.4009 56.2604 48.381 57.066 47.3369 57.7251C47.2155 57.7984 47.3369 58.0181 47.4583 57.9449C48.9638 56.9928 50.4935 55.6744 50.9063 53.8679C51.0277 53.3552 51.052 52.8425 51.0277 52.3299C51.0277 52.1345 51.0035 51.9392 50.9792 51.7439C50.9792 51.6707 50.9792 51.5975 50.9792 51.4998C50.9792 51.4022 50.9306 51.3045 50.8335 51.2313C50.7121 51.158 50.5664 51.2069 50.445 51.2069C50.105 51.2313 49.6922 51.2313 49.4009 51.036C49.158 50.8651 49.0852 50.4989 49.1095 50.2059C49.158 49.913 49.328 49.6444 49.6194 49.5956C49.7894 49.5468 49.9593 49.5712 50.1293 49.5956C50.2022 49.62 50.2993 49.62 50.3721 49.6444C50.4207 49.6688 50.5421 49.6688 50.5907 49.7177C50.6878 49.7909 50.9063 49.6688 50.8092 49.5468Z" fill="#101010"/>
<path d="M50.7812 50.3037C50.6112 50.1084 50.3684 49.9375 50.1013 49.9375C49.9799 49.9375 49.8342 49.9863 49.7371 50.084C49.6399 50.1816 49.5671 50.3281 49.6399 50.4746C49.6642 50.5234 49.7128 50.5722 49.7856 50.5478C49.8342 50.5234 49.907 50.4502 49.8585 50.4013C49.8585 50.3769 49.8342 50.3769 49.8585 50.3525C49.8585 50.3769 49.8585 50.3037 49.8585 50.3281C49.8828 50.3037 49.907 50.2549 49.9313 50.2549C50.0042 50.206 50.077 50.206 50.1499 50.206C50.3198 50.2305 50.4898 50.3769 50.6112 50.499C50.6598 50.5478 50.7326 50.5478 50.7812 50.499C50.8297 50.4258 50.8297 50.3525 50.7812 50.3037Z" fill="#101010"/>
<path d="M50.6354 50.3768C50.5868 50.3279 50.5139 50.3035 50.4411 50.3279C50.3683 50.3523 50.3197 50.4012 50.2954 50.4744C50.2954 50.4988 50.2954 50.5477 50.2954 50.5721C50.2954 50.5965 50.3197 50.6453 50.344 50.6697C50.3683 50.6941 50.3925 50.7185 50.4411 50.7185C50.4654 50.7185 50.5139 50.7185 50.5625 50.7185C50.5868 50.7185 50.6111 50.6941 50.6111 50.6941L50.6354 50.6697L50.6596 50.6453C50.6839 50.6209 50.6839 50.5721 50.6839 50.5232C50.6839 50.4988 50.6596 50.45 50.6596 50.4256C50.6596 50.4256 50.6354 50.4012 50.6111 50.4012C50.5868 50.4012 50.5868 50.4012 50.5625 50.4012C50.5382 50.4012 50.4897 50.4012 50.4654 50.4256C50.4411 50.45 50.4168 50.4744 50.4411 50.5232C50.4411 50.5232 50.4411 50.5232 50.4411 50.5477V50.5232V50.5477C50.4411 50.5477 50.4411 50.5232 50.4654 50.5232V50.5477L50.4897 50.5232C50.4897 50.5232 50.4897 50.5232 50.4654 50.5477L50.4897 50.5232C50.4897 50.5232 50.4654 50.5232 50.4654 50.5477C50.4654 50.5477 50.4897 50.5477 50.4897 50.5232H50.4654H50.4897H50.4654H50.4897C50.4897 50.5232 50.4897 50.5232 50.4654 50.5232C50.4654 50.5232 50.4897 50.5232 50.4897 50.5477C50.4897 50.5477 50.4897 50.5477 50.4654 50.5477L50.4897 50.5721C50.4897 50.5721 50.4897 50.5721 50.4654 50.5477L50.4897 50.5721C50.4897 50.5721 50.4897 50.5477 50.4654 50.5477C50.4654 50.5477 50.4654 50.5721 50.4897 50.5721V50.5477V50.5721V50.5477V50.5721V50.5477C50.4897 50.5477 50.4897 50.5721 50.4654 50.5721C50.4654 50.5721 50.4654 50.5721 50.4654 50.5477L50.4411 50.5721C50.4411 50.5721 50.4411 50.5721 50.4654 50.5477L50.4411 50.5721H50.4654C50.4654 50.5721 50.4411 50.5721 50.4411 50.5965H50.4654H50.4411H50.4654H50.4411H50.4654C50.4654 50.5965 50.4411 50.5965 50.4411 50.5721H50.4654L50.4411 50.5477C50.4654 50.5721 50.4897 50.5721 50.5382 50.5721C50.5625 50.5721 50.5625 50.5721 50.5868 50.5721C50.6111 50.5721 50.6111 50.5477 50.6354 50.5477C50.6596 50.5232 50.6839 50.4988 50.6596 50.45C50.6596 50.4256 50.6596 50.4012 50.6354 50.3768Z" fill="#101010"/>
<path d="M43.7654 47.9358C43.3769 48.4728 43.1098 49.1076 42.9641 49.7667C42.867 50.2306 42.867 50.8409 43.3283 51.1094C43.4497 51.1827 43.5954 50.9874 43.4497 50.8897C43.0369 50.6456 43.1341 50.0353 43.2555 49.6203C43.4012 49.0588 43.6683 48.5217 43.9839 48.0578C44.081 47.9113 43.8625 47.7893 43.7654 47.9358Z" fill="white"/>
<path d="M45.0276 46.7636C45.319 46.4463 45.6103 46.1289 45.9017 45.8115C45.9989 45.6895 45.8289 45.5186 45.7318 45.6406C45.4404 45.958 45.149 46.2754 44.8576 46.5927C44.7605 46.7148 44.9305 46.8857 45.0276 46.7636Z" fill="white"/>
<path d="M44.0332 36.9009C43.1833 37.4868 42.8191 38.6343 43.2076 39.6108C43.2561 39.7573 43.499 39.684 43.4504 39.5375C43.1104 38.6831 43.4018 37.6333 44.1546 37.1206C44.3003 37.023 44.1788 36.8033 44.0332 36.9009Z" fill="white"/>
<path d="M47.9913 42.3205C47.6271 42.8576 47.1657 43.3458 46.6558 43.7364C46.1459 44.127 45.5388 44.42 44.9075 44.4688C44.6647 44.4932 44.4219 44.4688 44.1791 44.5176C43.9362 44.5665 43.6934 44.6885 43.5963 44.9082C43.4992 45.128 43.5963 45.4453 43.8391 45.4942C43.9362 45.5186 44.0334 45.4942 44.1305 45.4698C44.7133 45.2744 45.1503 44.8106 45.5388 44.3223C46.4615 43.1505 47.3114 41.8566 48.5983 41.1242C48.6955 41.0754 48.8169 41.0266 48.8897 41.0754C49.0354 41.1731 48.9383 41.3928 48.8169 41.5148C48.5255 41.8566 48.2098 42.1496 47.8699 42.4425" fill="#101010"/>
<path d="M65.1087 46.6663C66.7842 44.8597 68.4353 43.0287 70.1108 41.2222C70.2079 41.1001 70.0379 40.9292 69.9408 41.0513C68.2653 42.8578 66.6142 44.6888 64.9387 46.4954C64.8173 46.593 64.9873 46.7639 65.1087 46.6663Z" fill="#101010"/>
<path d="M76.4348 40.1024C75.3496 42.4704 74.6713 45.0662 74.4678 47.6619C74.4678 47.7986 74.4452 47.9352 74.5357 48.0263C74.5809 48.0946 74.6713 48.1401 74.7618 48.1629C75.327 48.3906 75.9148 48.5955 76.48 48.8004C76.5931 48.846 76.7061 48.8687 76.8191 48.846C76.9548 48.8004 77.0226 48.641 77.0678 48.5272C78.0174 46.273 78.7183 43.9049 79.1931 41.4913C79.2157 41.3775 79.2383 41.2636 79.1705 41.1725C79.1478 41.127 79.08 41.0815 79.0348 41.0359C78.2435 40.4667 77.2939 40.1251 76.2991 40.0796" fill="#3643BA"/>
<path d="M82.7456 41.5602C83.763 41.3097 84.803 41.082 85.8204 40.8315C86.3404 43.6095 86.883 46.3646 87.403 49.1425C87.403 49.1881 87.4256 49.2336 87.403 49.2564C87.3804 49.3019 87.3352 49.3247 87.29 49.3247C86.7021 49.5068 86.1143 49.6662 85.5265 49.8484C84.3282 47.1843 83.4013 44.4064 82.7456 41.5602Z" fill="#3643BA"/>
<path d="M77.0269 40.1031C77.1625 39.5339 77.3208 38.9418 77.7051 38.5092C78.0895 38.0766 78.8129 37.8944 79.2651 38.2815C79.3329 38.327 79.3782 38.3954 79.4234 38.4864C79.446 38.5775 79.446 38.6686 79.4234 38.7597C79.3556 39.4883 79.2651 40.2397 78.8808 40.8545C78.8582 40.9 78.8129 40.9456 78.7677 40.9683C78.6999 40.9911 78.6321 40.9683 78.5869 40.9228C78.0669 40.6723 77.5695 40.4219 77.0495 40.1942" fill="#E1E3F5"/>
<path d="M82.9916 41.3099C82.9464 40.8545 82.8786 40.4219 82.8334 39.9665C82.8108 39.8526 82.8108 39.7615 82.8334 39.6477C82.8786 39.5111 83.0142 39.42 83.1499 39.3289C83.4212 39.1468 83.6925 38.9646 83.9864 38.8963C84.2803 38.828 84.6647 38.8735 84.8681 39.1012C85.0716 39.3062 85.1168 39.6249 85.1621 39.8982C85.2073 40.1714 85.2299 40.4446 85.2751 40.6951C85.2977 40.7862 85.2977 40.8773 85.2299 40.9683C85.1847 41.0367 85.0942 41.0594 85.0038 41.0594C84.2803 41.1733 83.5794 41.2644 82.856 41.3782" fill="#E1E3F5"/>
<path d="M79.3995 38.1897C79.6255 37.6888 80.0777 37.3928 80.5977 37.2106C81.1629 37.0057 81.7508 36.8919 82.316 36.6869C83.0168 36.4592 83.6725 36.1405 84.2829 35.7306C84.8708 35.3435 85.436 34.8653 85.8203 34.2733C86.2273 33.6358 86.3403 32.9071 86.1595 32.1785C86.0012 31.5182 85.6621 30.9034 85.2099 30.4025C84.3734 29.4689 83.0621 28.8997 81.796 29.1957C80.6429 29.4689 79.5803 30.4708 79.4221 31.6776C79.3316 32.3379 79.4899 33.0893 80.0099 33.5219C80.4621 33.909 81.0725 34.0001 81.6603 33.9773C82.316 33.9318 82.9716 33.7496 83.5821 33.5219C84.2829 33.2487 84.9838 32.9299 85.6169 32.5201C86.7247 31.837 87.9908 30.8579 88.1943 29.4689C88.3073 28.7858 88.0812 28.1482 87.7647 27.5562C87.4482 26.987 87.0412 26.4633 86.8829 25.803C86.6116 24.5051 87.3577 23.1844 88.4203 22.5013C89.0082 22.137 89.6638 21.9093 90.3421 21.7727C90.9751 21.6588 91.676 21.6133 92.2638 21.8638C92.8064 22.0915 93.123 22.5696 93.1456 23.1617C93.1682 23.7537 92.9195 24.3001 92.4899 24.6872C91.4047 25.6436 89.7995 25.4159 88.5334 25.0971C87.7421 24.8922 86.9734 24.6417 86.1595 24.5278C85.436 24.4368 84.6447 24.414 83.9438 24.71C83.4238 24.9377 82.9264 25.4386 82.9716 26.0534C82.9942 26.4405 83.2203 26.7365 83.4464 27.0098C83.6499 27.2375 83.8534 27.4424 84.0795 27.6473C85.029 28.467 86.1821 28.968 87.3125 29.4689C88.4656 29.9926 89.6412 30.5391 90.5908 31.4271C91.1108 31.9053 91.5403 32.4745 91.8795 33.1121C92.0603 33.4308 92.196 33.7724 92.1734 34.1367C92.1734 34.41 92.083 34.6604 91.9473 34.9109C91.6534 35.4346 91.1334 35.7989 90.5908 36.0266C89.8899 36.3226 89.1212 36.3454 88.3751 36.3454C87.629 36.3682 86.8603 36.3682 86.1142 36.5503C85.5264 36.7097 84.9612 36.9829 84.509 37.37C84.0795 37.7571 83.7855 38.2581 83.7177 38.8501C83.6951 38.9639 83.8308 39.0778 83.9438 39.0778C84.0795 39.0778 84.1473 38.9639 84.1699 38.8501C84.3055 37.6888 85.5942 37.074 86.6116 36.9146C88.0812 36.6869 89.6638 37.0285 91.043 36.2998C91.5856 36.0266 92.0603 35.594 92.3543 35.0703C92.6708 34.4783 92.6708 33.8179 92.3995 33.2032C92.1282 32.5428 91.6534 31.928 91.1786 31.4043C90.7264 30.9262 90.2064 30.4935 89.6412 30.152C88.6012 29.4917 87.4256 29.059 86.3177 28.5126C85.7751 28.2393 85.2325 27.9661 84.7351 27.6018C84.509 27.4424 84.2829 27.2375 84.0569 27.0325C83.8308 26.8048 83.6047 26.5771 83.469 26.3039C83.1751 25.7574 83.6499 25.2792 84.1247 25.0743C84.7803 24.7783 85.5942 24.8694 86.2951 24.9832C87.7873 25.2565 89.2569 25.9396 90.7943 25.7574C92.0377 25.6208 93.3038 24.9149 93.5073 23.5715C93.5977 22.9795 93.4847 22.3875 93.1004 21.9093C92.6708 21.3856 91.9699 21.2035 91.3369 21.2035C90.0029 21.1579 88.5786 21.5905 87.5838 22.4786C86.6116 23.3438 86.069 24.7555 86.4308 26.0307C86.6116 26.6682 87.0186 27.1919 87.3351 27.7612C87.6516 28.3304 87.8325 28.9224 87.6516 29.56C87.4708 30.1748 87.0412 30.6985 86.589 31.1311C86.069 31.6093 85.4812 31.9963 84.8708 32.3379C84.2151 32.7022 83.5368 32.9982 82.8134 33.2032C82.2482 33.3853 81.6603 33.5219 81.0499 33.4308C80.4847 33.3625 80.0099 33.0438 79.8516 32.4745C79.6934 31.8825 79.829 31.2677 80.1455 30.7668C80.4395 30.2886 80.9142 29.9015 81.4342 29.6738C81.9768 29.4461 82.5647 29.4234 83.1299 29.5827C84.3282 29.9015 85.3229 30.9489 85.6395 32.1785C85.7299 32.5201 85.7525 32.9071 85.6621 33.2487C85.5942 33.5675 85.436 33.8635 85.2325 34.1367C84.8255 34.6832 84.2603 35.1158 83.6725 35.4574C83.0621 35.8217 82.4064 36.0949 81.7281 36.2998C81.1629 36.4592 80.5977 36.5959 80.0777 36.8236C79.5803 37.0513 79.1508 37.3928 78.9247 37.8937C78.8794 38.0076 78.9021 38.1442 79.0151 38.2125C79.196 38.3264 79.3542 38.2808 79.3995 38.1897Z" fill="#101010"/>
<path d="M77.0258 40.3074C77.1389 39.8976 77.3198 39.5105 77.5232 39.1462C77.6363 38.964 77.7493 38.7818 77.885 38.6225C77.998 38.4631 78.1789 38.3037 78.3824 38.3492C78.8345 38.4631 78.8345 39.0551 78.8345 39.4194C78.8345 39.8748 78.7441 40.3302 78.6085 40.7856C78.5632 40.9222 78.7893 40.9905 78.8345 40.8539C78.9702 40.4668 79.038 40.0342 79.0606 39.6243C79.0832 39.26 79.1058 38.7818 78.8798 38.4631C78.6989 38.1898 78.3598 38.0532 78.0658 38.1898C77.7493 38.3492 77.5458 38.7135 77.365 39.0095C77.1389 39.3966 76.958 39.8065 76.8224 40.2391C76.7772 40.3757 77.0032 40.444 77.0258 40.3074Z" fill="#101010"/>
<path d="M82.7424 41.6739C83.6693 41.4006 84.6189 41.1502 85.5458 40.8769C85.6815 40.8314 85.6363 40.6265 85.478 40.6492C84.551 40.9225 83.6015 41.1729 82.6745 41.4462C82.5389 41.4917 82.6067 41.7194 82.7424 41.6739Z" fill="#101010"/>
<path d="M83.1091 41.355C82.5665 40.6492 82.7926 39.6018 83.6065 39.2147C84.0361 39.0098 84.4882 39.1008 84.8274 39.4424C85.1665 39.7839 85.3021 40.2393 85.4378 40.6947C85.483 40.8313 85.6865 40.7858 85.6639 40.6264C85.4604 39.8978 85.0987 38.987 84.2395 38.8959C83.4708 38.8048 82.7474 39.4424 82.6117 40.1938C82.5439 40.6492 82.6343 41.1046 82.9282 41.4689C82.9961 41.5827 83.1995 41.4689 83.1091 41.355Z" fill="#101010"/>
<path d="M82.3854 41.4913C82.7019 42.9941 83.1089 44.4969 83.5837 45.9542C83.8323 46.6828 84.081 47.4115 84.3523 48.1401C84.488 48.5044 84.6463 48.8688 84.7819 49.2331C84.8497 49.3925 84.9176 49.5518 84.9854 49.7112C85.0306 49.8479 85.0984 49.9617 85.2115 50.0528C85.3471 50.1666 85.5054 50.1666 85.6637 50.1211C85.8671 50.0756 86.0706 49.9845 86.2741 49.9162C86.7037 49.7795 87.1558 49.6202 87.5854 49.4835C87.721 49.438 87.6532 49.2103 87.5176 49.2558C87.1558 49.3697 86.7715 49.5063 86.4097 49.6202C86.2515 49.6657 86.0932 49.734 85.935 49.7795C85.7767 49.8251 85.528 49.9617 85.3471 49.8706C85.2341 49.8023 85.1663 49.6429 85.121 49.5063C85.0532 49.3242 84.9854 49.1648 84.895 48.9826C84.7593 48.6411 84.6237 48.2767 84.488 47.9352C83.968 46.569 83.5158 45.2028 83.1315 43.7911C82.9054 42.9941 82.7245 42.1972 82.5437 41.3775C82.5663 41.2864 82.3402 41.3319 82.3854 41.4913Z" fill="#101010"/>
<path d="M68.5903 18.6304C67.799 18.9264 67.3468 19.7689 67.0529 20.5886C66.759 21.4083 66.5555 22.2735 65.9677 22.9111C65.3572 23.5487 64.4529 23.8447 63.9555 24.5733C63.0738 25.8712 63.8877 28.0343 62.6216 28.9679C65.5607 30.3341 68.5225 31.5864 71.5294 32.7477C71.3938 32.2012 71.846 31.6775 72.3207 31.3587C72.7955 31.0399 73.3607 30.835 73.6999 30.3796C74.3781 29.4233 73.7225 28.1026 73.5868 26.9414C73.4286 25.4158 74.2199 23.9813 74.7625 22.5468C74.966 22.0003 75.0564 21.2489 74.5364 20.9984C74.1973 21.6815 73.8581 22.3419 73.5416 23.025C72.999 24.1179 72.366 25.3019 71.2581 25.7801C70.1277 26.2583 68.6807 25.8029 68.0251 24.7327C67.5729 23.9813 67.5277 23.025 67.7538 22.1597C67.9799 21.2944 68.4094 20.5203 68.9068 19.7689C69.0425 19.5639 69.1781 19.3362 69.1103 19.0858C69.0425 18.8353 68.6807 18.7215 68.5677 18.9491" fill="#E1E3F5"/>
<path d="M63.1644 29.1045C62.9383 29.3777 62.6896 29.651 62.4636 29.9242C62.3957 29.9925 62.3279 30.0836 62.3279 30.1747C62.3053 30.3568 62.5088 30.4707 62.667 30.539C64.3401 31.2904 65.9905 32.019 67.6636 32.7704C68.2288 33.0209 68.794 33.2714 69.3592 33.5218C69.8566 33.7495 70.5575 33.9317 70.874 33.4763C71.0323 33.2258 71.0096 32.8843 70.8514 32.6338C70.6931 32.3834 70.4444 32.2012 70.1957 32.0418C69.7436 31.7458 69.2236 31.5409 68.7262 31.3132C67.0983 30.6073 65.4705 29.9242 63.8427 29.2639C63.4583 29.1045 62.9383 28.9906 62.7123 29.3322" fill="#101010"/>
<path d="M68.1179 18.9038C66.8744 19.7691 66.897 21.4768 66.1057 22.6608C65.6761 23.2756 65.0205 23.6855 64.4552 24.1636C64.1839 24.3913 63.9352 24.6418 63.7544 24.9378C63.5283 25.3021 63.4379 25.6892 63.4152 26.1218C63.3926 26.6683 63.4379 27.2148 63.3248 27.7613C63.2118 28.285 62.9631 28.7631 62.6239 29.173C62.5787 29.2413 62.5787 29.3324 62.6692 29.3552C63.37 29.5829 64.0483 29.8106 64.7492 30.0382C64.8848 30.0838 64.9526 29.8561 64.817 29.8106C64.1161 29.5829 63.4379 29.3552 62.737 29.1275C62.7596 29.1958 62.7596 29.2641 62.7822 29.3096C63.37 28.6038 63.6413 27.7385 63.6413 26.8277C63.6413 26.3495 63.5961 25.8486 63.777 25.3932C63.9126 25.0517 64.1387 24.7784 64.3874 24.5279C64.93 24.027 65.5631 23.6399 66.0605 23.0707C66.5352 22.5242 66.7839 21.8183 67.01 21.1352C67.2587 20.3838 67.5526 19.5641 68.2309 19.086C68.3666 19.0176 68.2535 18.8127 68.1179 18.9038Z" fill="#101010"/>
<path d="M68.3204 18.8808C68.8178 18.8808 69.0213 19.4729 68.9534 19.9055C68.9082 20.2015 68.75 20.452 68.6143 20.7252C68.4787 20.9757 68.343 21.2261 68.2526 21.4766C67.8456 22.4557 67.6647 23.617 68.1395 24.5961C68.5239 25.4158 69.3604 26.0989 70.2874 26.0761C71.3274 26.0533 72.1187 25.1881 72.7065 24.4139C73.4752 23.4348 74.0856 22.3191 74.4926 21.1578C74.47 21.1806 74.4474 21.2034 74.4474 21.2261C74.8543 20.9984 75.2161 21.4994 75.2161 21.8637C75.2161 22.3874 74.8317 22.8883 74.583 23.321C74.0856 24.1862 73.6108 25.1198 73.6108 26.1444C73.6108 27.1235 73.9952 28.0799 73.95 29.0817C73.9274 29.5371 73.7917 29.947 73.4978 30.3113C73.2717 30.6073 72.9778 30.835 72.6839 31.0855C72.0508 31.5864 71.3274 32.0873 71.0787 32.8843C71.1239 32.8615 71.1917 32.8387 71.2369 32.816C71.0108 32.7249 70.8074 32.611 70.5813 32.52C70.4456 32.4517 70.3326 32.6566 70.4682 32.7249C70.6943 32.816 70.8978 32.9298 71.1239 33.0209C71.1917 33.0437 71.2595 33.0209 71.2821 32.9526C71.5082 32.1784 72.2317 31.7003 72.8421 31.2221C73.1587 30.9716 73.4526 30.7212 73.6787 30.4024C73.95 30.0381 74.1082 29.6054 74.1308 29.15C74.2213 28.0799 73.7465 27.0552 73.7917 26.0078C73.8369 24.8921 74.4474 23.8902 74.99 22.9566C75.2387 22.5468 75.51 22.0003 75.3065 21.4994C75.1708 21.1578 74.7639 20.839 74.3795 20.9529C74.2891 20.9757 74.2213 21.0212 74.1761 21.1123C74.1308 21.2489 74.0856 21.3628 74.0404 21.4994C73.9274 21.7498 73.8369 22.0003 73.7013 22.2508C73.4752 22.7289 73.2039 23.2071 72.8874 23.6397C72.5708 24.0951 72.2543 24.5278 71.87 24.9148C71.5308 25.2792 71.1013 25.6207 70.6265 25.7573C69.6995 26.0306 68.7726 25.4158 68.3204 24.6188C67.7778 23.6625 67.9587 22.4557 68.3882 21.4766C68.5917 20.9757 68.9308 20.543 69.0665 20.0193C69.1569 19.6095 69.0891 19.1313 68.75 18.8353C68.6143 18.6987 68.4334 18.6304 68.23 18.6304C68.1621 18.6531 68.1621 18.8808 68.3204 18.8808Z" fill="#101010"/>
<path d="M69.0416 19.4045C69.6294 21.5449 70.0816 23.7308 70.3529 25.9167C70.3755 26.0533 70.6016 26.0533 70.579 25.9167C70.3077 23.6852 69.8555 21.4993 69.2677 19.3362C69.2225 19.1996 68.9964 19.2679 69.0416 19.4045Z" fill="#101010"/>
<path d="M68.2994 23.9356C68.4351 23.7307 68.6385 23.5941 68.842 23.4802C69.0681 23.3436 69.2942 23.2298 69.5203 23.1159C70.0177 22.8654 70.5151 22.615 71.0125 22.41C72.0072 22.0002 73.0246 21.6586 74.0872 21.4082C74.2229 21.3626 74.1777 21.1577 74.0194 21.1805C72.3238 21.5903 70.6733 22.2279 69.1359 23.0704C68.7742 23.2753 68.322 23.4575 68.0959 23.8445C68.0281 23.9356 68.209 24.0495 68.2994 23.9356Z" fill="#101010"/>
<path d="M41.7808 28.0352C41.7808 28.0352 41.8855 28.3595 42.0642 28.3256C42.243 28.2918 42.2096 27.9683 42.2096 27.9683" fill="#101010"/>
<path d="M41.7808 28.0352C41.7808 28.0352 41.8855 28.3595 42.0642 28.3256C42.243 28.2918 42.2096 27.9683 42.2096 27.9683" stroke="#101010" stroke-miterlimit="10"/>
<path d="M36.8955 25.3149C36.8955 25.3149 37.0002 25.6393 37.179 25.6054C37.3577 25.5716 37.3244 25.2481 37.3244 25.2481" fill="#101010"/>
<path d="M36.8955 25.3149C36.8955 25.3149 37.0002 25.6393 37.179 25.6054C37.3577 25.5716 37.3244 25.2481 37.3244 25.2481" stroke="#101010" stroke-miterlimit="10"/>
<path d="M33.9878 25.203C33.9878 25.203 33.9997 25.5335 34.1779 25.5714C34.3561 25.6094 34.4156 25.2798 34.4156 25.2798" fill="#101010"/>
<path d="M33.9878 25.203C33.9878 25.203 33.9997 25.5335 34.1779 25.5714C34.3561 25.6094 34.4156 25.2798 34.4156 25.2798" stroke="#101010" stroke-miterlimit="10"/>
<path d="M43.5884 27.6895C43.5884 27.6895 43.6931 28.0138 43.8718 27.9799C44.0506 27.9461 44.0173 27.6226 44.0173 27.6226" fill="#101010"/>
<path d="M43.5884 27.6895C43.5884 27.6895 43.6931 28.0138 43.8718 27.9799C44.0506 27.9461 44.0173 27.6226 44.0173 27.6226" stroke="#101010" stroke-miterlimit="10"/>
<path d="M46.3345 26.6602C46.3345 26.6602 46.4392 26.9845 46.6179 26.9506C46.7967 26.9168 46.7634 26.5933 46.7634 26.5933" fill="#101010"/>
<path d="M46.3345 26.6602C46.3345 26.6602 46.4392 26.9845 46.6179 26.9506C46.7967 26.9168 46.7634 26.5933 46.7634 26.5933" stroke="#101010" stroke-miterlimit="10"/>
<path d="M48.3584 25.7192C48.3584 25.7192 48.4631 26.0436 48.6419 26.0097C48.8206 25.9759 48.7873 25.6524 48.7873 25.6524" fill="#101010"/>
<path d="M48.3584 25.7192C48.3584 25.7192 48.4631 26.0436 48.6419 26.0097C48.8206 25.9759 48.7873 25.6524 48.7873 25.6524" stroke="#101010" stroke-miterlimit="10"/>
<path d="M51.2398 23.8579C51.2398 23.8579 51.5023 24.0835 51.6317 23.9701C51.761 23.8567 51.5774 23.5817 51.5774 23.5817" fill="#101010"/>
<path d="M51.2398 23.8579C51.2398 23.8579 51.5023 24.0835 51.6317 23.9701C51.761 23.8567 51.5774 23.5817 51.5774 23.5817" stroke="#101010" stroke-miterlimit="10"/>
<path d="M53.4502 21.3774C53.4502 21.3774 53.7128 21.603 53.8421 21.4896C53.9715 21.3762 53.7878 21.1013 53.7878 21.1013" fill="#101010"/>
<path d="M53.4502 21.3774C53.4502 21.3774 53.7128 21.603 53.8421 21.4896C53.9715 21.3762 53.7878 21.1013 53.7878 21.1013" stroke="#101010" stroke-miterlimit="10"/>
<path d="M39.0662 17.0693C38.4926 18.3767 37.329 19.3254 36.1101 20.0294C34.8912 20.7334 33.545 21.2636 32.34 22.0109C32.0604 22.1728 31.7947 22.378 31.6713 22.6566C31.5259 23.0139 31.6301 23.41 31.8132 23.7568C32.4269 24.7762 33.7239 25.1214 34.9155 25.2141C36.6354 25.3273 38.3579 25.0814 39.9687 24.4896C39.0997 25.1761 38.4548 26.4827 39.1339 27.3377C39.608 27.9248 40.4572 27.9848 41.2071 27.9575C45.964 27.7107 50.5365 25.3508 53.4839 21.6294C53.7576 21.3023 54.0034 20.8887 53.9421 20.4787C53.8937 20.2556 53.788 20.0748 53.6607 19.9011C53.3005 19.3728 52.9617 18.8375 52.6084 18.3308C52.2556 17.7524 51.8529 17.1661 51.2549 16.9295C50.6569 16.6929 49.8051 16.9918 49.7289 17.6371C49.0398 18.1462 48.0853 17.8336 47.2737 17.5227C46.469 17.2335 45.4496 17.0135 44.8668 17.6315C44.9488 17.1513 44.207 17.0566 43.7346 17.2092C43.112 17.4102 42.4609 17.5966 41.8168 17.8046C41.3609 16.6864 39.5991 16.4436 38.8569 17.3756" fill="#E1E3F5"/>
<path d="M51.3221 20.6562C50.6717 21.7258 49.9998 22.8022 49.009 23.5519C48.643 23.8134 48.263 24.0316 47.9039 24.3147C47.6023 24.5553 47.3361 24.8323 47.0629 25.0877C44.9783 27.0023 41.7894 27.6262 39.1338 26.5976C38.9503 27.2776 39.732 27.7892 40.4164 27.9263C41.7568 28.1859 43.1583 27.9004 44.461 27.4559C47.9252 26.2895 51.0682 24.1285 53.3738 21.283C53.662 20.9273 53.9437 20.4782 53.7826 20.0527C53.5511 19.4828 52.7229 19.4876 52.2275 19.8625C51.7321 20.2373 51.4353 20.7868 50.9614 21.1547" fill="#3643BA"/>
<path d="M48.5475 19.4034C48.5362 19.0012 48.3676 18.6258 48.163 18.286C47.8806 17.852 47.5268 17.4171 47.0571 17.2106C46.5873 17.0042 46.0302 17.0409 45.5713 17.3084C45.4135 17.4071 45.2841 17.5205 45.1902 17.6702C45.0743 17.8987 45.0867 18.1573 45.0776 18.4229C45.0364 19.1763 44.6672 19.8685 44.2062 20.4233C43.7307 21.0066 43.1704 21.474 42.617 21.9631C42.5451 22.0341 42.4877 22.0765 42.4442 22.1622C42.3788 22.3265 42.4346 22.4995 42.5549 22.6517C42.76 22.9197 43.1089 23.0458 43.4374 23.0352C43.7659 23.0246 44.081 22.899 44.3821 22.7301C45.0348 22.3284 45.5178 21.6949 46.0786 21.1557C46.7404 20.4883 47.5299 19.923 48.3753 19.5306C48.4397 19.5098 48.4971 19.4674 48.533 19.4319C48.6484 19.2753 48.4144 19.0644 48.4514 18.8853" fill="#E1E3F5"/>
<path d="M41.7434 19.0458C41.3231 18.9189 40.8867 19.036 40.5067 19.2542C40.1267 19.4724 39.8175 19.7632 39.4799 20.0394C38.8981 20.5138 38.224 20.9224 37.4591 21.0501C36.7227 21.1924 35.8815 21.0104 35.35 20.4658C36.7381 20.0653 37.9585 19.1459 38.7173 17.8981C38.9052 17.5987 39.079 17.256 39.3377 17.0292C39.8766 16.5687 40.7472 16.6218 41.2578 17.1016C41.7898 17.5744 41.9338 18.3874 41.672 19.045" fill="#E1E3F5"/>
<path d="M39.0695 26.6185C39.048 26.6254 39.0695 26.6185 39.0695 26.6185C39.048 26.6254 39.048 26.6254 39.0695 26.6185C39.041 26.6038 39.041 26.6038 39.034 26.5822L39.0056 26.5675C38.9986 26.5459 39.0056 26.5675 39.0056 26.5675L38.9986 26.5459C38.9916 26.5242 38.9632 26.5096 38.9562 26.4879L38.9492 26.4663C38.9562 26.4879 38.9562 26.4879 38.9492 26.4663C38.9422 26.4447 38.9422 26.4447 38.9352 26.4231L38.9282 26.4015L38.9213 26.3798C38.9143 26.3582 38.9213 26.3798 38.9213 26.3798C38.9213 26.3798 38.9282 26.4015 38.9213 26.3798L38.9143 26.3582L38.9073 26.3366C38.9003 26.315 38.9003 26.315 38.9148 26.2864C38.9078 26.2648 38.9218 26.308 38.9148 26.2864L38.9078 26.2648C38.9223 26.2362 38.9153 26.2146 38.9298 26.1861C38.9588 26.129 38.8879 26.0563 38.838 26.0486C38.7666 26.0478 38.7307 26.0833 38.7017 26.1404C38.6142 26.3835 38.7334 26.6792 38.968 26.8184C39.0249 26.8477 39.0894 26.8269 39.1183 26.7698C39.1473 26.7127 39.1049 26.6548 39.0695 26.6185Z" fill="#101010"/>
<path d="M47.9247 24.2363C48.0536 24.1947 47.9837 23.9785 47.8549 24.0201C47.7261 24.0617 47.7959 24.2779 47.9247 24.2363Z" fill="#101010"/>
<path d="M44.9469 17.7963C45.1754 19.752 43.401 21.2322 42.1216 22.4094C41.2086 23.2533 40.2603 24.061 39.3543 24.9265C39.0092 25.2528 38.728 25.6302 38.6959 26.118C38.6713 26.5558 38.8538 26.9743 39.1298 27.3149C39.788 28.1052 40.801 28.2317 41.7586 28.1135C42.809 27.9891 43.8536 27.6996 44.8627 27.3737C46.9023 26.7151 48.8373 25.7321 50.5247 24.4232C51.3577 23.7722 52.1627 23.0347 52.854 22.2385C53.1996 21.8404 53.5452 21.4423 53.8055 21.0001C54.0368 20.615 54.1688 20.1426 53.9577 19.7094C53.8734 19.5217 53.7102 19.3834 53.518 19.3022C53.3828 19.2504 53.2813 19.4503 53.4166 19.5021C53.8793 19.687 53.8966 20.2544 53.7437 20.6619C53.5548 21.1049 53.1877 21.5099 52.8781 21.8726C52.2083 22.6619 51.4677 23.3785 50.6562 24.0226C49.0546 25.3038 47.2125 26.2806 45.2797 26.9764C44.3205 27.31 43.3189 27.5857 42.3178 27.7896C41.4027 27.9658 40.2738 28.0677 39.5147 27.4055C39.1883 27.1289 38.9413 26.7312 38.923 26.3073C38.8837 25.8186 39.1649 25.4413 39.51 25.115C40.3585 24.2919 41.2709 23.5197 42.1479 22.7113C42.8666 22.0733 43.5852 21.4354 44.1691 20.6738C44.695 20.0265 45.1077 19.2486 45.1709 18.4164C45.2009 18.2157 45.181 18.0072 45.1611 17.7988C45.1622 17.6552 44.9265 17.6597 44.9469 17.7963Z" fill="#101010"/>
<path d="M45.1102 17.7917C45.3979 17.5078 45.707 17.217 46.1005 17.1138C46.4295 17.0314 46.786 17.1073 47.0705 17.2542C47.7533 17.6067 48.112 18.3504 48.4428 19.0076C48.5062 19.1304 48.7069 19.0178 48.6366 18.8734C48.2779 18.1297 47.8553 17.335 47.0726 16.967C46.7451 16.834 46.3957 16.7797 46.0452 16.869C45.6088 16.9861 45.2637 17.3124 44.9615 17.6248C44.8322 17.7382 45.0024 17.8982 45.1102 17.7917Z" fill="#101010"/>
<path d="M42.7811 22.9844C43.1435 23.2255 43.6078 23.1949 43.9873 23.0485C44.4886 22.8389 44.8916 22.3984 45.2727 22.0366C45.7112 21.6323 46.1497 21.2281 46.5881 20.8239C47.0121 20.4482 47.4292 20.0509 47.945 19.8127C48.7903 19.4204 50.0818 19.5286 50.4322 18.4843C50.4907 18.2983 50.4992 18.1045 50.4364 17.9099C50.3666 17.6937 50.111 17.4897 50.1555 17.2605C50.2811 16.6947 51.0653 16.8473 51.4642 16.9811C52.3827 17.3292 53.0903 18.1989 53.1973 19.191C53.2177 19.3277 53.4319 19.3302 53.4329 19.1866C53.3394 18.3095 52.8239 17.5209 52.0992 17.0387C51.7368 16.7976 51.2811 16.6344 50.8243 16.6148C50.3959 16.6098 49.8941 16.8913 49.9333 17.38C49.9672 17.6317 50.1873 17.7993 50.2426 18.0441C50.291 18.2673 50.218 18.4818 50.1096 18.6601C49.8064 19.1161 49.2557 19.2462 48.7479 19.3624C48.1972 19.4925 47.6889 19.6805 47.2295 20.0199C46.77 20.3593 46.353 20.7565 45.9575 21.1469C45.4616 21.5936 44.9866 22.1051 44.4767 22.5085C44.0457 22.8625 43.4441 23.1284 42.9325 22.7923C42.7617 22.7041 42.6603 22.904 42.7811 22.9844Z" fill="#101010"/>
<path d="M48.2869 18.0791C48.6755 17.6671 49.2906 17.5162 49.8248 17.7018C49.96 17.7537 50.0046 17.5244 49.8693 17.4726C49.2638 17.2861 48.5627 17.4647 48.1168 17.9191C48.0159 18.0472 48.1791 18.1855 48.2869 18.0791Z" fill="#101010"/>
<path d="M43.9376 20.8444C44.346 20.6409 44.7974 20.4235 45.2397 20.4716C45.7035 20.5129 46.1577 20.8915 46.1186 21.3577C45.5641 21.0354 44.8651 20.9269 44.2285 21.0847C44.0997 21.1263 43.9639 21.1463 43.8571 21.1091C43.7433 21.0504 43.7019 20.8489 43.8093 20.8142" fill="#101010"/>
<path d="M42.4148 22.2193C42.8372 22.059 43.2741 21.8702 43.7309 21.8898C44.1877 21.9094 44.6644 22.1375 44.8256 22.5629C43.9802 22.9553 42.9226 22.1031 42.1266 22.575" fill="#101010"/>
<path d="M39.0126 16.8249C38.5973 17.9617 37.8191 18.9293 36.7864 19.5493C36.1912 19.9086 35.5112 20.1521 34.895 20.4466C34.2428 20.7765 33.6047 21.1497 32.988 21.516C32.6654 21.6918 32.3498 21.8892 32.0487 22.0581C31.812 22.2061 31.5184 22.3248 31.4519 22.6328C31.3623 23.1631 31.6507 23.7624 31.9905 24.154C32.8189 25.1041 34.1099 25.2841 35.2876 25.3336C36.7794 25.401 38.3231 25.189 39.621 24.4357C39.7428 24.3724 39.63 24.1701 39.4867 24.2403C38.3467 24.8949 37.0386 25.1024 35.739 25.1162C34.5968 25.1031 33.2478 25.0373 32.34 24.2083C31.9357 23.8375 31.5899 23.2806 31.6226 22.7209C31.6381 22.5488 31.7315 22.4709 31.8678 22.3791C32.0042 22.2873 32.1689 22.2102 32.3053 22.1185C32.6064 21.9496 32.9075 21.7807 33.2016 21.5903C33.8038 21.2525 34.3991 20.8932 35.0083 20.5771C35.6244 20.2826 36.2616 20.053 36.8353 19.7006C37.9109 19.0668 38.7395 18.0352 39.1693 16.8697C39.2627 16.7918 39.0635 16.689 39.0126 16.8249Z" fill="#101010"/>
<path d="M39.2016 17.0491C39.7544 16.6319 40.5542 16.6124 41.1082 17.0065C41.6907 17.4152 41.949 18.2152 41.7226 18.9091C41.6716 19.0449 41.8998 19.0906 41.9508 18.9548C42.1992 18.1822 41.9129 17.2957 41.2381 16.8213C40.5987 16.3831 39.699 16.3871 39.0673 16.8537C38.9525 16.9386 39.0867 17.134 39.2016 17.0491Z" fill="#101010"/>
<path d="M39.7361 20.0995C40.0248 19.672 40.4553 19.3898 40.9346 19.2589C41.4639 19.1357 41.998 19.3214 42.5197 19.2484C42.9057 19.1954 43.3072 18.9702 43.4171 18.5766C43.4831 18.3404 43.3848 18.1095 43.4009 17.8656C43.424 17.6432 43.5613 17.4079 43.7336 17.2806C43.9204 17.1248 44.185 17.0632 44.4201 17.1306C44.6837 17.2126 44.8893 17.4088 44.9087 17.689C44.9291 17.8257 45.1433 17.8282 45.1444 17.6846C45.1051 17.1959 44.6434 16.8675 44.1721 16.8764C43.7362 16.9216 43.3122 17.2973 43.2017 17.7628C43.1653 17.87 43.1787 17.9851 43.1921 18.1001C43.2126 18.2368 43.24 18.395 43.2174 18.5456C43.1515 18.7818 42.9362 18.9229 42.7215 18.9922C42.4424 19.0823 42.1429 19.0358 41.8503 19.0109C41.5793 18.9791 41.3152 18.9689 41.0435 19.0088C40.4359 19.1095 39.9121 19.4697 39.5799 19.9828C39.4575 20.1179 39.6567 20.2207 39.7361 20.0995Z" fill="#101010"/>
<path d="M41.9979 17.6982C42.2636 17.493 42.6565 17.4617 42.9405 17.6803C42.9974 17.7097 43.0473 17.7175 43.1048 17.675C43.1407 17.6396 43.1343 17.5461 43.0988 17.5098C42.7509 17.2402 42.2297 17.2414 41.8707 17.5244C41.8132 17.5668 41.8057 17.617 41.8482 17.675C41.8836 17.7113 41.962 17.7337 41.9979 17.6982Z" fill="#101010"/>
<path d="M35.1649 20.6924C36.3164 21.395 37.8086 21.3906 38.9347 20.6927C39.0565 20.6295 38.9438 20.4272 38.8005 20.4973C37.7318 21.1528 36.3255 21.1294 35.2378 20.4779C35.124 20.4191 35.0226 20.619 35.1649 20.6924Z" fill="#101010"/>
<path d="M36.036 19.7191C36.8863 19.6356 37.7753 20.1125 38.1694 20.8925C38.0535 21.1209 37.7121 20.9447 37.5279 20.7415C37.1457 20.292 36.5353 19.7967 36.012 20.0851" fill="#101010"/>
<path d="M37.1903 19.2511C37.8579 18.749 38.9487 18.9697 39.3718 19.6926C39.4282 19.7938 39.4846 19.895 39.4481 20.0023C39.4181 20.203 39.139 20.2931 38.9183 20.1972C38.7261 20.116 38.5919 19.9206 38.4502 19.7754C38.1382 19.4702 37.7329 19.243 37.3051 19.1662" fill="#101010"/>
<path d="M45.6139 25.2931C45.6664 24.9419 45.7264 24.5405 45.9143 24.2411C46.0876 23.9702 46.3672 23.8083 46.6593 23.905C46.8515 23.9862 47.0436 24.0674 47.2648 24.0915C47.479 24.094 47.6867 24.003 47.859 23.8757C48.218 23.5927 48.3565 23.2137 48.5164 22.8278C48.5963 22.6349 48.6548 22.4489 48.7986 22.3069C48.8346 22.2714 48.9135 22.2221 48.9564 22.2082C49.0423 22.1805 49.0638 22.1735 49.1706 22.2107C49.3558 22.2702 49.5426 22.1144 49.5866 21.957C49.6166 21.7563 49.4963 21.6041 49.3326 21.5376C48.9053 21.3891 48.4249 21.6636 48.1797 22.0054C48.0283 22.1975 47.9553 22.4121 47.8679 22.6552C47.8094 22.8412 47.7295 23.0342 47.6141 23.1908C47.5132 23.3189 47.3838 23.4323 47.2625 23.4237C47.0913 23.4074 46.8996 23.2544 46.6999 23.2234C46.2437 23.132 45.7708 23.3563 45.4611 23.7189C45.137 24.1101 45.026 24.6473 44.9509 25.1491C44.9139 25.3282 45.0197 25.5089 45.2049 25.5684C45.3831 25.6064 45.5838 25.4938 45.6139 25.2931Z" fill="#3643BA"/>
<path d="M37.9674 23.2736C38.0259 23.0875 38.0914 22.9232 38.1783 22.7518C38.2288 22.6878 38.2792 22.6237 38.3511 22.5528C38.3726 22.5458 38.3656 22.5242 38.4085 22.5104C38.43 22.5034 38.5089 22.4541 38.4874 22.461C38.5304 22.4471 38.5733 22.4333 38.5948 22.4263C38.6377 22.4125 38.6592 22.4055 38.6807 22.3986C38.7521 22.3994 38.802 22.4072 38.8235 22.4002C38.9802 22.4451 39.079 22.6042 39.1923 22.7348C39.5327 23.0546 39.9535 23.1097 40.355 22.8846C40.7205 22.6949 40.9658 22.3531 41.1826 21.9966C41.291 21.8183 41.4278 21.6547 41.5716 21.5128C41.701 21.3994 41.8228 21.3362 41.9511 21.3664C42.3859 21.4647 42.5265 20.7986 42.0916 20.7002C41.6069 20.5941 41.1979 20.8695 40.8883 21.2321C40.6291 21.5307 40.4547 21.9451 40.153 22.1858C40.0741 22.2351 40.0382 22.2706 39.9738 22.2914C39.9523 22.2983 39.8664 22.3261 39.9094 22.3122C39.8594 22.3045 39.838 22.3114 39.8095 22.2967C39.6812 22.2665 39.554 22.0927 39.4477 21.9838C39.1073 21.664 38.6151 21.608 38.2066 21.8116C37.7123 22.0428 37.4799 22.5715 37.312 23.0793C37.2535 23.2653 37.4092 23.4538 37.566 23.4987C37.7581 23.5799 37.909 23.4596 37.9674 23.2736Z" fill="#3643BA"/>
<path d="M40.3041 23.9753C38.4459 25.1961 36.0723 25.6283 33.8983 25.1366C33.6202 25.0831 33.3352 25.008 33.0791 24.8758C32.4172 24.5882 31.8787 24.0219 31.5909 23.3509C31.556 23.2428 31.5141 23.113 31.579 23.0205C31.608 22.9633 31.6724 22.9425 31.7513 22.8932C32.0379 22.7529 32.4174 22.6065 32.6874 22.7819C32.9644 22.979 32.9328 23.395 33.102 23.6986C33.313 24.1318 33.8332 24.2742 34.3039 24.3371C36.6787 24.7162 39.1811 24.2424 41.2749 23.0171C40.9223 23.3936 40.5627 23.7485 40.1393 24.0524" fill="#3643BA"/>
</svg>
